<?xml version="1.0" encoding="utf-8"?>
<!-- Generator: Adobe Illustrator 22.0.0, SVG Export Plug-In . SVG Version: 6.00 Build 0)  -->
<svg version="1.1" id="Layer_1" xmlns="http://www.w3.org/2000/svg" xmlns:xlink="http://www.w3.org/1999/xlink" x="0px" y="0px"
	 viewBox="0 0 500 500" style="enable-background:new 0 0 500 500;" xml:space="preserve">
<style type="text/css">
	.st0{fill:#81AC6F;}
</style>
<g>
	<g>
		<path class="st0" d="M223.7,197.6c0,9.9-8,17.8-17.8,17.8c-9.9,0-17.8-8-17.8-17.8c0-9.9,8-17.8,17.8-17.8
			C215.7,179.7,223.7,187.7,223.7,197.6L223.7,197.6z M223.7,197.6"/>
		<path class="st0" d="M318.1,350.8c-21.3-31.7-45.6-73.1-49.7-80.1c-0.4-1.3-0.9-2.5-1.5-3.8c-4.9-9.5-9.9-18.8-15.1-28.1
			c5.5,0.4,11,0.8,16.5,1.3c3.8,7.4,7.5,14.9,11.3,22.3c6.1,12,24,1.4,18-10.5c-4.9-9.6-10.6-31.2-23.2-32.2
			c-13.3-1-26.7-2.1-40-3.1c-0.3,0-0.6,0-0.9,0c-10.1-2.7-21.9,4.4-24,14.7c-6.8,14.8-16.6,26.3-33,31.1
			c-12.9,3.8-7.4,23.9,5.5,20.1c16.2-4.8,27.9-14.1,36.8-26.3c5.3,9.5,10.6,19.2,15.6,28.9c-11,7.6-20.7,16.8-29.1,27.4
			c-2.4,3-2.8,6-2,8.7c0,1,0,2,0.3,3.2c3.3,12.9,6.5,25.7,9.7,38.5c3.5,13.7,25.1,9.8,21.6-4c-3.1-12.2-6.2-24.5-9.3-36.7
			c7.7-9.1,16.9-17.1,27.3-23c2.5-1.4,4-3.3,4.9-5.4c14.3,21.9,28.6,52.2,42.9,70.5C309.4,375.4,326.8,362,318.1,350.8L318.1,350.8z
			 M318.1,350.8"/>
	</g>
</g>
</svg>
